<?xml version="1.0" standalone="no"?>
<!DOCTYPE svg PUBLIC "-//W3C//DTD SVG 20010904//EN"
 "http://www.w3.org/TR/2001/REC-SVG-20010904/DTD/svg10.dtd">
<svg version="1.0" xmlns="http://www.w3.org/2000/svg"
 width="1080.000000pt" height="1080.000000pt" viewBox="0 0 1080.000000 1080.000000"
 preserveAspectRatio="xMidYMid meet">

<g transform="translate(0.000000,1080.000000) scale(0.100000,-0.100000)"
fill="#000000" stroke="none">
<path d="M2440 7795 c0 -32 -2 -35 -30 -35 -16 0 -30 -4 -30 -10 0 -5 14 -10
30 -10 29 0 30 -1 30 -47 0 -25 -6 -54 -13 -62 -8 -9 -41 -81 -75 -161 -33
-80 -70 -167 -82 -195 l-21 -50 -21 48 c-30 68 -49 63 -95 -25 -30 -59 -39
-87 -43 -148 l-5 -75 -55 -5 -55 -5 -5 -105 -5 -105 -28 -3 c-40 -5 -43 -26
-13 -81 l26 -49 0 -451 0 -451 -59 0 c-41 0 -65 -5 -75 -16 -14 -14 -13 -20 9
-64 25 -49 25 -50 25 -350 0 -255 -2 -300 -15 -300 -30 0 -34 -32 -9 -82 23
-45 24 -56 24 -238 l0 -190 -55 0 c-75 0 -79 -14 -32 -104 l37 -71 0 -577 0
-577 -22 -16 c-20 -13 -23 -26 -26 -99 -3 -50 1 -92 7 -105 l12 -21 2777 0
c2147 0 2781 3 2790 12 8 8 12 45 12 100 0 76 -3 91 -20 105 -20 17 -20 30
-20 606 l0 588 30 59 c17 33 30 69 30 80 0 18 -6 20 -60 20 l-60 0 0 191 c0
189 0 192 27 239 23 41 25 51 14 64 -7 9 -20 16 -27 16 -12 0 -14 52 -14 301
l0 301 28 50 c26 48 27 49 8 64 -12 8 -43 14 -78 14 l-58 0 0 445 0 446 26 50
c31 62 28 82 -11 89 l-30 5 -5 105 -5 105 -52 3 -53 3 0 67 c-1 59 -6 76 -43
147 -51 97 -71 103 -104 35 l-21 -45 -11 28 c-31 81 -155 365 -167 382 -8 11
-14 39 -14 62 0 41 1 43 30 43 38 0 40 18 3 22 -23 2 -29 9 -34 38 l-6 35 -2
-37 c-1 -35 -3 -38 -31 -38 -16 0 -30 -4 -30 -10 0 -5 14 -10 30 -10 29 0 30
-1 30 -47 0 -25 -6 -54 -13 -62 -11 -13 -70 -146 -165 -371 l-14 -34 -22 44
c-33 69 -52 62 -103 -39 -37 -72 -43 -92 -43 -147 l0 -63 -52 -3 -53 -3 -5
-105 -5 -105 -30 -5 c-40 -7 -43 -30 -11 -85 l26 -44 0 -450 0 -451 -58 0
c-32 0 -66 -6 -76 -13 -17 -13 -17 -16 8 -65 l26 -51 0 -301 0 -300 -240 0
c-132 0 -240 1 -240 3 0 1 7 24 15 51 43 141 -13 242 -173 317 l-71 32 -3 61
-3 61 -48 3 c-57 4 -77 -9 -77 -49 0 -16 -2 -29 -4 -29 -3 0 -41 15 -86 34
-99 42 -162 82 -215 135 -38 40 -41 41 -107 41 -67 0 -68 0 -81 33 -16 37 -42
62 -74 71 -13 4 -37 27 -53 52 -40 57 -63 57 -97 0 -17 -28 -38 -47 -59 -55
-38 -14 -74 -54 -74 -82 0 -17 -8 -19 -71 -19 -70 0 -71 0 -115 -44 -51 -51
-120 -93 -224 -136 -40 -17 -74 -30 -76 -30 -2 0 -4 13 -4 28 0 38 -17 52 -61
52 -63 0 -69 -6 -69 -69 l0 -56 -84 -43 c-142 -73 -189 -147 -168 -267 5 -33
13 -68 17 -77 7 -17 -8 -18 -234 -18 l-241 0 0 297 0 298 27 51 c36 69 25 84
-58 84 l-59 0 0 455 c0 436 1 457 20 495 30 58 27 78 -12 82 l-33 3 -5 105 -5
105 -52 3 -53 3 0 67 c-1 59 -6 76 -43 147 -51 96 -71 103 -103 36 l-20 -44
-92 215 c-102 238 -115 298 -67 298 14 0 25 5 25 10 0 6 -11 10 -25 10 -22 0
-25 4 -25 35 0 19 -4 35 -10 35 -5 0 -10 -16 -10 -35z m100 -481 c76 -175 90
-216 90 -261 l0 -53 -185 0 -185 0 0 58 c0 32 4 62 9 68 5 5 46 98 92 206 46
109 84 196 86 194 2 -2 44 -97 93 -212z m4214 -10 c71 -166 86 -209 86 -252
l0 -52 -185 0 -185 0 0 58 c0 32 4 62 9 68 4 5 46 98 91 207 50 118 86 193 90
185 4 -7 46 -103 94 -214z m-4551 -124 c4 -16 0 -20 -19 -20 -27 0 -28 3 -13
31 12 22 24 18 32 -11z m527 -12 c0 -4 -9 -8 -20 -8 -21 0 -24 8 -13 36 6 16
7 16 20 -2 7 -10 13 -21 13 -26z m3668 -6 c-27 -5 -32 2 -18 29 l13 22 13 -24
c11 -22 11 -24 -8 -27z m542 6 c0 -4 -11 -8 -25 -8 -23 0 -24 2 -13 26 11 24
13 25 25 8 7 -10 13 -21 13 -26z m-4712 -40 c7 -7 12 -38 12 -70 l0 -58 -45 0
-45 0 0 70 0 70 33 0 c18 0 38 -5 45 -12z m522 -58 l0 -70 -50 0 -50 0 0 58
c0 68 11 82 62 82 l38 0 0 -70z m3688 58 c7 -7 12 -38 12 -71 l0 -58 -47 3
-48 3 -3 54 c-2 29 -1 60 2 67 7 17 67 19 84 2z m520 -60 l3 -68 -51 0 -50 0
0 58 c0 68 12 84 60 80 l35 -3 3 -67z m-4203 -98 c3 -5 28 -10 56 -10 l49 0 0
-90 0 -90 -170 0 -170 0 0 49 c0 77 -52 118 -110 88 -21 -11 -26 -21 -30 -72
l-5 -60 -172 -3 -173 -2 0 90 0 90 49 0 c28 0 53 5 56 10 4 6 118 10 310 10
192 0 306 -4 310 -10z m4210 0 c3 -5 28 -10 56 -10 l49 0 0 -90 0 -90 -169 0
-169 0 -4 56 c-6 65 -24 88 -73 88 -49 0 -67 -23 -73 -88 l-4 -56 -169 0 -169
0 0 90 0 90 49 0 c28 0 53 5 56 10 4 6 118 10 310 10 192 0 306 -4 310 -10z
m-4487 -76 c18 -12 22 -25 22 -65 l0 -50 -52 3 -53 3 -3 42 c-2 32 2 47 17 62
25 25 39 26 69 5z m4213 -5 c15 -15 19 -30 17 -62 l-3 -42 -50 0 -50 0 -3 42
c-3 44 22 83 53 83 8 0 24 -9 36 -21z m-4603 -174 c22 -45 22 -52 22 -505 l0
-460 -50 0 -50 0 0 473 c0 388 -2 477 -14 492 -12 17 -11 21 8 31 42 24 61 17
84 -31z m702 13 c-19 -32 -20 -52 -20 -505 l0 -473 -320 0 -320 0 0 460 c0
441 -1 462 -20 500 -11 22 -20 42 -20 45 0 3 162 5 360 5 l360 0 -20 -32z m94
21 c24 -11 24 -13 11 -40 -13 -23 -15 -106 -15 -494 l0 -465 -45 0 -45 0 0
465 c0 448 1 467 20 505 22 42 34 47 74 29z m3413 -34 c23 -40 23 -41 23 -502
l0 -463 -50 0 -50 0 0 468 c-1 375 -3 472 -14 492 -13 22 -12 25 8 36 35 21
59 12 83 -31z m713 38 c-1 -5 -7 -19 -15 -33 -12 -21 -14 -107 -15 -497 l0
-473 -325 0 -325 0 0 473 c-1 390 -3 476 -15 497 -8 14 -14 28 -15 33 0 4 160
7 355 7 195 0 355 -3 355 -7z m83 -6 c23 -12 24 -15 11 -38 -11 -19 -13 -117
-14 -491 l0 -468 -45 0 -45 0 0 471 c0 460 0 472 21 505 23 37 34 41 72 21z
m-2521 -961 c7 -16 26 -30 52 -38 37 -12 42 -17 52 -58 11 -45 11 -45 57 -48
l47 -3 0 -310 0 -309 -230 0 -230 0 0 310 0 310 43 0 c49 0 67 13 67 49 0 32
27 61 56 61 15 0 29 11 41 30 21 36 30 37 45 6z m-1687 -66 c3 -5 31 -10 61
-10 56 0 62 -6 44 -41 -10 -18 -27 -19 -544 -19 l-533 0 -11 25 c-7 14 -12 28
-12 30 0 3 24 5 54 5 30 0 58 5 61 10 4 6 162 10 440 10 278 0 436 -4 440 -10z
m4210 0 c3 -5 31 -10 61 -10 57 0 65 -9 40 -42 -12 -17 -50 -18 -543 -18
l-530 0 -11 25 c-7 14 -12 28 -12 30 0 3 24 5 54 5 30 0 58 5 61 10 4 6 162
10 440 10 278 0 436 -4 440 -10z m-2795 -390 l0 -310 -25 0 -25 0 0 310 0 310
25 0 25 0 0 -310z m550 0 l0 -310 -25 0 -25 0 0 310 0 310 25 0 25 0 0 -310z
m-2880 -5 l0 -305 -30 0 -30 0 0 305 0 305 30 0 30 0 0 -305z m940 0 l0 -305
-25 0 c-14 0 -25 -5 -25 -10 0 -6 11 -33 25 -60 24 -48 25 -56 25 -245 l0
-195 -80 0 -80 0 0 263 c0 261 0 262 25 306 14 23 25 45 25 47 0 2 -157 4
-350 4 -259 0 -350 -3 -350 -12 0 -6 11 -31 25 -54 l25 -43 -2 -253 -3 -253
-77 -3 -78 -3 0 206 c0 202 1 207 25 249 26 44 25 56 -7 56 -17 0 -18 16 -18
305 l0 305 460 0 460 0 0 -305z m70 0 l0 -305 -25 0 -25 0 0 305 0 305 25 0
25 0 0 -305z m3200 0 l0 -305 -30 0 -30 0 0 305 0 305 30 0 30 0 0 -305z m940
0 l0 -305 -25 0 c-31 0 -31 -8 0 -70 25 -49 25 -54 23 -243 l-3 -192 -77 -3
-78 -3 0 261 c0 241 2 264 20 300 11 22 20 44 20 50 0 7 -113 10 -345 10 -232
0 -345 -3 -345 -10 0 -6 9 -28 20 -50 18 -36 20 -59 20 -300 l0 -261 -77 3
-78 3 -3 192 c-2 189 -2 194 23 243 31 62 31 70 0 70 l-25 0 0 305 0 305 465
0 465 0 0 -305z m70 0 l0 -305 -30 0 -30 0 0 305 0 305 30 0 30 0 0 -305z
m-2987 197 c-33 -27 -203 -111 -285 -141 l-58 -21 0 28 c0 27 6 31 88 61 100
38 192 87 242 129 l35 30 3 -31 c3 -25 -3 -37 -25 -55z m784 5 c32 -19 102
-52 156 -73 90 -36 97 -40 97 -66 l0 -28 -62 24 c-100 37 -190 80 -251 119
-52 34 -57 40 -57 73 l0 36 30 -25 c16 -14 55 -41 87 -60z m-1156 -101 c5 -6
9 -99 9 -208 l0 -198 -25 0 -25 0 0 184 c0 113 4 187 10 191 6 3 11 32 12 63
1 47 2 50 5 17 3 -22 9 -44 14 -49z m399 -161 l0 -245 -185 0 -185 0 2 161 3
161 75 28 c79 29 221 98 255 124 11 8 23 16 28 16 4 0 7 -110 7 -245z m678
226 c42 -29 147 -80 241 -116 l86 -33 3 -161 2 -161 -185 0 -185 0 0 245 c0
135 3 245 6 245 3 0 18 -8 32 -19z m398 -283 l5 -188 -26 0 -25 0 0 200 c0
127 4 200 10 200 6 0 11 21 11 48 l2 47 9 -60 c6 -33 12 -144 14 -247z m-1536
148 c0 -20 -12 -31 -59 -56 -33 -18 -69 -43 -82 -56 -30 -32 -29 -96 5 -169
l25 -56 -32 3 c-30 3 -33 7 -56 75 -29 89 -24 129 26 184 29 32 139 98 166 99
4 0 7 -11 7 -24z m1652 -12 c126 -63 156 -150 98 -281 -16 -37 -23 -43 -50
-43 l-30 0 26 53 c37 71 38 136 4 172 -14 15 -51 40 -82 56 -48 24 -58 34 -58
55 0 29 12 28 92 -12z m-1652 -184 l0 -140 -43 0 c-40 0 -45 3 -64 38 -12 20
-27 58 -33 84 -11 41 -10 51 4 74 18 27 101 84 123 84 10 0 13 -32 13 -140z
m1618 120 c100 -53 113 -100 56 -212 -24 -47 -26 -48 -69 -48 l-45 0 0 140 c0
90 4 140 10 140 6 0 27 -9 48 -20z m-3128 -210 c-19 -36 -20 -58 -20 -300 l0
-261 -37 3 -38 3 -5 270 c-4 190 -9 277 -17 292 -7 12 -13 24 -13 27 0 3 34 6
75 6 l75 0 -20 -40z m355 -5 c22 -38 25 -55 23 -108 l-3 -62 -187 -3 -188 -2
0 70 c0 51 6 82 20 110 l20 40 144 0 144 0 27 -45z m135 5 c-19 -36 -20 -58
-20 -300 l0 -261 -37 3 -38 3 -5 270 c-4 190 -9 277 -17 292 -7 12 -13 24 -13
27 0 3 34 6 75 6 l75 0 -20 -40z m3721 4 c-20 -33 -21 -49 -21 -300 l0 -265
-37 3 -38 3 -5 270 c-4 242 -7 273 -24 298 l-18 27 82 0 82 0 -21 -36z m349
-4 c14 -28 20 -59 20 -110 l0 -70 -185 0 -185 0 0 70 c0 51 6 82 20 110 l20
40 145 0 145 0 20 -40z m141 4 c-20 -33 -21 -49 -21 -300 l0 -265 -37 3 -38 3
-5 270 c-4 242 -7 273 -24 298 l-18 27 82 0 82 0 -21 -36z m-4971 -114 c-18
-36 -20 -58 -20 -245 l0 -206 -27 3 -28 3 -5 215 c-3 118 -9 221 -14 228 -13
21 23 41 72 42 l42 0 -20 -40z m1000 25 c10 -12 10 -21 1 -41 -7 -16 -11 -97
-11 -229 l0 -205 -25 0 -25 0 0 203 c0 184 -2 205 -20 235 -11 18 -20 37 -20
42 0 16 86 12 100 -5z m2515 5 c4 -6 102 -10 260 -10 251 0 254 0 269 -22 9
-12 16 -26 16 -30 0 -5 -675 -8 -1500 -8 l-1501 0 16 30 16 30 259 0 c162 0
261 4 265 10 4 7 332 10 950 10 618 0 946 -3 950 -10z m705 -1 c0 -6 -6 -20
-12 -32 -9 -15 -15 -91 -18 -232 l-5 -210 -25 0 -25 0 -5 215 c-3 118 -9 221
-13 228 -15 23 13 42 59 42 25 0 44 -5 44 -11z m991 -5 c10 -12 10 -20 1 -35
-8 -13 -12 -84 -12 -230 l0 -210 -27 3 -28 3 -5 210 c-3 141 -9 217 -17 232
-7 12 -13 26 -13 32 0 18 86 13 101 -5z m-3431 -444 l0 -360 -75 0 -75 0 0
141 0 141 -35 35 c-31 31 -40 35 -72 30 -20 -4 -46 -15 -57 -26 l-22 -21 -20
20 c-11 12 -36 23 -56 26 -30 5 -41 1 -69 -24 l-34 -30 -3 -146 -3 -146 -75 0
-74 0 0 97 c0 91 2 99 35 159 45 81 40 94 -36 94 l-59 0 0 185 0 185 365 0
365 0 0 -360z m70 0 l0 -360 -25 0 -25 0 0 360 0 360 25 0 25 0 0 -360z m170
0 l0 -360 -75 0 -75 0 0 360 0 360 75 0 75 0 0 -360z m70 0 l0 -360 -25 0 -25
0 0 360 0 360 25 0 25 0 0 -360z m920 0 l0 -360 -135 0 -135 0 0 144 c0 129
-2 146 -20 169 -27 34 -78 44 -118 23 -17 -9 -33 -21 -36 -28 -5 -11 -7 -11
-12 0 -3 7 -19 19 -36 28 -40 21 -91 11 -118 -23 -18 -23 -20 -40 -20 -169 l0
-144 -135 0 -135 0 0 360 0 360 450 0 450 0 0 -360z m70 0 l0 -360 -25 0 -25
0 0 360 0 360 25 0 25 0 0 -360z m170 0 l0 -360 -75 0 -75 0 0 360 0 360 75 0
75 0 0 -360z m70 0 l0 -360 -25 0 -25 0 0 360 0 360 25 0 25 0 0 -360z m750
175 l0 -185 -55 0 c-74 0 -77 -13 -31 -109 35 -71 37 -81 34 -156 l-3 -80 -77
-3 -78 -3 0 136 c0 152 -9 184 -59 205 -36 14 -83 6 -106 -20 -17 -19 -18 -19
-47 5 -40 34 -80 32 -120 -4 l-33 -29 -3 -146 -3 -146 -75 0 -74 0 0 360 0
360 365 0 365 0 0 -185z m-3422 73 l-3 -83 -187 -3 -188 -2 0 85 0 85 190 0
191 0 -3 -82z m4202 -3 l0 -85 -185 0 -185 0 0 85 0 85 185 0 185 0 0 -85z
m-4202 -187 l-3 -83 -187 -3 -188 -2 0 85 0 85 190 0 191 0 -3 -82z m4202 -3
l0 -85 -185 0 -185 0 0 85 0 85 185 0 185 0 0 -85z m-3443 -109 l28 -24 0
-139 0 -138 -78 -3 -78 -3 3 146 c3 140 4 148 27 166 31 26 64 24 98 -5z m178
-1 c24 -23 25 -29 25 -165 l0 -140 -75 0 -75 0 0 144 c0 144 0 145 26 165 35
28 69 26 99 -4z m940 0 c24 -23 25 -29 25 -165 l0 -140 -75 0 -75 0 0 144 c0
144 0 145 26 165 35 28 69 26 99 -4z m169 4 c26 -20 26 -21 26 -165 l0 -144
-75 0 -75 0 0 140 c0 136 1 142 25 165 30 30 64 32 99 4z m937 8 c33 -25 39
-55 39 -186 l0 -131 -80 0 -80 0 0 131 c0 80 4 139 12 152 16 31 39 46 68 46
14 0 32 -5 41 -12z m184 -12 c24 -23 25 -29 25 -165 l0 -140 -75 0 -75 0 0
144 c0 144 0 145 26 165 35 28 69 26 99 -4z m-3825 -48 l-30 -54 0 -371 0
-372 116 0 116 0 133 -70 133 -70 123 67 124 68 125 5 125 5 3 362 2 363 -30
53 c-16 30 -30 57 -30 61 0 4 21 5 48 2 114 -13 142 -18 142 -25 0 -4 -8 -18
-17 -31 -17 -23 -18 -75 -23 -630 l-5 -605 -587 -3 -588 -2 0 590 0 591 -25
49 -25 50 44 0 c25 0 48 5 51 10 3 6 28 10 56 10 l49 0 -30 -53z m113 -2 c-27
-54 -28 -55 -70 -55 -24 0 -43 2 -43 5 0 3 11 28 25 55 25 49 26 50 70 50 l45
0 -27 -55z m137 50 c0 -3 -11 -28 -25 -55 -25 -49 -26 -50 -70 -50 -25 0 -45
2 -45 5 0 3 12 27 28 55 26 47 29 50 70 50 23 0 42 -2 42 -5z m93 -47 c-26
-50 -31 -53 -70 -56 -51 -4 -53 3 -17 64 25 42 28 44 71 44 l44 0 -28 -52z
m222 2 c14 -27 25 -52 25 -55 0 -3 -20 -5 -44 -5 -39 0 -45 3 -56 30 -7 17
-16 30 -21 30 -5 0 -15 -13 -24 -30 -14 -27 -21 -30 -60 -30 -25 0 -45 3 -45
6 0 4 12 28 27 55 l26 49 73 0 74 0 25 -50z m118 -6 l27 -55 -45 3 c-43 3 -47
5 -75 56 l-30 52 48 0 48 0 27 -56z m112 6 c14 -27 25 -52 25 -55 0 -3 -19 -5
-42 -5 -41 0 -44 3 -70 50 -16 28 -28 52 -28 55 0 3 20 5 45 5 44 0 45 -1 70
-50z m118 -6 l27 -55 -46 3 c-45 3 -48 5 -76 56 l-30 52 49 0 49 0 27 -56z
m3317 51 c0 -3 -11 -28 -25 -55 l-25 -49 0 -371 0 -370 115 0 116 0 133 -70
132 -70 132 70 131 70 116 0 115 0 0 370 0 371 -25 49 c-14 27 -25 52 -25 56
0 6 30 3 142 -12 l47 -6 -24 -49 -25 -48 0 -591 0 -590 -585 0 -585 0 0 590 0
591 -25 49 -25 50 44 0 c25 0 48 5 51 10 6 10 95 14 95 5z m93 -47 c-26 -50
-31 -53 -70 -56 -51 -4 -53 3 -17 64 25 42 28 44 71 44 l44 0 -28 -52z m137
47 c0 -3 -11 -28 -25 -55 -25 -49 -26 -50 -70 -50 -25 0 -45 3 -45 6 0 4 12
28 27 55 25 47 28 49 70 49 23 0 43 -2 43 -5z m92 -47 c-28 -51 -31 -53 -76
-56 l-47 -3 22 43 c32 64 37 68 86 68 l45 0 -30 -52z m223 2 c14 -27 25 -52
25 -55 0 -3 -20 -5 -44 -5 -39 0 -45 3 -56 30 -16 38 -26 38 -48 0 -15 -26
-23 -30 -59 -30 -24 0 -43 2 -43 5 0 3 11 28 25 55 l25 50 75 0 75 0 25 -50z
m118 -6 l27 -55 -45 3 c-44 3 -48 5 -76 56 l-31 52 49 0 49 0 27 -56z m112 6
c14 -27 25 -52 25 -55 0 -3 -20 -5 -43 -5 -42 0 -45 2 -70 49 -15 27 -27 51
-27 55 0 3 20 6 45 6 44 0 45 -1 70 -50z m118 -8 l30 -53 -49 3 c-48 3 -50 4
-77 56 l-29 53 47 -3 c46 -3 49 -5 78 -56z m-4643 -43 c0 -5 -7 -9 -15 -9 -9
0 -12 6 -9 15 6 15 24 11 24 -6z m4204 6 c3 -9 0 -15 -9 -15 -9 0 -12 6 -9 15
4 8 7 15 9 15 2 0 5 -7 9 -15z m-3734 -385 l0 -350 -105 0 -105 0 0 265 0 265
-50 0 -49 0 -3 -57 -3 -58 -167 -3 -168 -2 0 60 0 61 -52 -3 -53 -3 -3 -262
-2 -263 -100 0 -100 0 0 350 0 350 480 0 480 0 0 -350z m4210 0 l0 -350 -105
0 -105 0 0 265 0 265 -50 0 -49 0 -3 -57 -3 -58 -167 -3 -167 -2 -3 57 -3 58
-52 3 -53 3 0 -265 0 -266 -105 0 -105 0 0 350 0 350 485 0 485 0 0 -350z
m-4880 -95 l0 -255 -35 0 -35 0 0 255 0 255 35 0 35 0 0 -255z m440 0 l0 -255
-30 0 -30 0 0 255 0 255 30 0 30 0 0 -255z m3770 0 l0 -255 -35 0 -35 0 0 255
0 255 35 0 35 0 0 -255z m440 0 l0 -255 -35 0 -35 0 0 255 0 255 35 0 35 0 0
-255z m-900 210 l0 -35 -1455 0 -1455 0 0 35 0 35 1455 0 1455 0 0 -35z
m-2240 -420 c0 -360 0 -366 -22 -408 -19 -34 -24 -63 -28 -157 l-5 -115 -27
-3 -28 -3 0 273 c-1 202 -4 283 -14 311 -58 162 -271 206 -387 80 -63 -67 -64
-72 -67 -380 l-3 -283 -25 0 c-23 0 -24 2 -24 75 0 64 -3 77 -20 87 -20 13
-20 24 -20 450 l0 438 335 0 335 0 0 -365z m70 0 l0 -365 -25 0 -25 0 0 365 0
365 25 0 25 0 0 -365z m170 -5 l0 -371 -25 -49 c-22 -43 -25 -62 -25 -155 l0
-105 -25 0 -25 0 0 110 c0 98 -3 116 -25 160 l-25 49 0 366 0 365 75 0 75 0 0
-370z m70 4 l0 -365 -22 3 -23 3 -3 350 c-1 192 0 356 3 362 2 7 14 13 25 13
20 0 20 -5 20 -366z m920 1 c0 -330 -2 -369 -17 -398 -18 -32 -18 -30 -23 148
-5 178 -5 181 -37 246 -52 104 -149 186 -267 223 -18 6 -19 32 -1 79 7 15 -2
17 -100 17 l-107 0 6 -45 c6 -38 4 -46 -11 -51 -106 -36 -200 -108 -247 -188
-45 -77 -56 -137 -56 -305 l0 -156 -20 33 c-19 31 -20 50 -20 397 l0 365 450
0 450 0 0 -365z m68 3 l-3 -363 -22 -3 -23 -3 0 365 0 366 25 0 25 0 -2 -362z
m172 -10 l0 -373 -25 -40 c-22 -36 -24 -51 -25 -152 l0 -113 -25 0 -25 0 0
113 c0 102 -2 116 -25 152 l-24 40 -1 373 0 372 75 0 75 0 0 -372z m70 6 l0
-365 -22 3 -23 3 -3 363 -2 362 25 0 25 0 0 -366z m698 -69 l2 -429 -25 -24
c-22 -20 -25 -31 -25 -92 0 -68 -1 -70 -25 -70 l-25 0 0 263 c0 309 -5 339
-73 405 -42 42 -111 72 -162 72 -52 0 -124 -31 -164 -71 -65 -65 -71 -99 -71
-406 l0 -263 -25 0 -25 0 0 103 c0 94 -2 106 -30 157 l-29 55 -1 368 0 367
338 -2 337 -3 3 -430z m-3388 325 l0 -90 -170 0 -170 0 0 90 0 90 170 0 170 0
0 -90z m4210 0 l0 -90 -170 0 -170 0 0 90 0 90 170 0 170 0 0 -90z m-2205 4
c-15 -80 -20 -85 -77 -82 l-52 3 -13 50 c-7 28 -13 53 -13 58 0 4 37 7 81 7
l81 0 -7 -36z m-149 -79 c6 -24 10 -25 74 -25 64 0 68 1 74 25 6 22 10 24 34
19 95 -23 200 -112 249 -211 l28 -58 3 -307 3 -308 -45 0 -45 0 -3 283 -3 282
-28 57 c-30 61 -74 105 -140 140 -34 18 -58 23 -127 23 -76 0 -91 -3 -139 -30
-58 -32 -109 -88 -137 -150 -16 -35 -18 -77 -22 -322 l-4 -283 -44 0 -45 0 3
303 3 302 29 63 c37 80 132 171 208 201 68 26 66 26 74 -4z m-1858 -132 l3
-93 -171 0 -170 0 0 95 0 95 168 -2 167 -3 3 -92z m4210 0 l3 -93 -171 0 -170
0 0 95 0 95 168 -2 167 -3 3 -92z m-2288 -349 l0 -385 -37 3 -38 3 -3 370 c-2
339 -1 371 15 383 9 6 27 12 40 12 l23 0 0 -386z m78 380 l22 -6 0 -379 0
-379 -40 0 -40 0 0 385 c0 423 -4 395 58 379z m-170 -395 l-3 -364 -37 -3 -38
-3 0 354 0 355 32 21 c18 11 36 17 41 12 4 -4 6 -171 5 -372z m280 -14 l2
-355 -35 0 -35 0 0 376 0 376 33 -21 32 -20 3 -356z m-1237 354 c52 -16 103
-61 128 -112 20 -41 21 -60 21 -320 l0 -277 -215 0 -215 0 0 263 c0 144 4 277
10 296 33 118 154 184 271 150z m2296 -25 c34 -21 55 -44 75 -83 l28 -53 0
-274 0 -274 -215 0 -216 0 3 283 3 284 30 48 c64 103 189 133 292 69z m-1437
-344 l0 -340 -41 0 -40 0 3 283 c3 274 4 283 27 327 24 45 40 70 47 70 2 0 4
-153 4 -340z m465 236 c12 -39 15 -109 15 -313 l0 -263 -40 0 -40 0 0 343 1
342 25 -30 c13 -16 31 -52 39 -79z m-2205 13 c-30 -17 -80 -43 -110 -59 l-56
-28 -109 59 -110 59 220 0 220 0 -55 -31z m4259 27 c-2 -1 -51 -28 -109 -59
l-105 -56 -110 59 -110 60 219 0 c121 0 217 -2 215 -4z m-3005 -350 c24 -41
26 -54 26 -155 l0 -111 -75 0 -75 0 0 112 c0 101 2 115 25 155 35 59 64 59 99
-1z m247 -6 c25 -41 27 -54 28 -152 l1 -108 -80 0 -80 0 0 105 c0 93 3 112 25
156 23 43 30 50 52 47 19 -2 35 -16 54 -48z m984 0 c22 -43 25 -62 25 -155 l0
-106 -77 3 -78 3 -3 97 c-2 83 0 104 19 140 30 59 38 68 65 68 18 0 29 -11 49
-50z m247 -5 c26 -46 28 -57 25 -150 l-2 -100 -77 -3 -78 -3 0 106 c0 93 3
111 25 156 23 44 29 50 53 47 21 -2 33 -15 54 -53z m-3474 -172 c-41 -93 -48
-97 -48 -28 0 65 18 95 56 95 l23 0 -31 -67z m137 -5 l-35 -73 -61 -3 -60 -3
19 38 c11 21 27 55 35 76 16 37 16 37 76 37 l60 0 -34 -72z m138 -3 l-37 -75
-58 0 -57 0 25 57 c43 98 38 93 104 93 l60 0 -37 -75z m167 65 c0 -5 -14 -39
-32 -75 l-32 -65 -58 0 -57 0 16 38 c8 20 24 54 34 75 19 36 21 37 74 37 30 0
55 -4 55 -10z m275 -52 c15 -35 29 -69 32 -75 4 -10 -10 -13 -51 -13 l-56 0
-30 60 c-17 33 -32 60 -35 60 -2 0 -16 -27 -31 -60 l-27 -60 -58 0 c-33 0 -59
2 -59 5 0 3 16 37 35 75 l35 70 109 0 108 0 28 -62z m141 -5 c16 -37 31 -71
32 -75 2 -4 -21 -8 -52 -8 l-56 0 -35 70 c-19 38 -35 72 -35 75 0 3 26 5 58 5
l59 0 29 -67z m139 0 c17 -36 32 -70 34 -75 1 -5 -23 -8 -55 -6 l-59 3 -32 65
c-17 36 -32 68 -32 73 -1 4 25 7 57 7 l57 -1 30 -66z m140 -3 c19 -38 35 -72
35 -75 0 -3 -26 -5 -59 -5 l-58 0 -32 70 c-17 39 -31 72 -31 75 0 3 25 5 55 5
l55 0 35 -70z m50 54 c22 -14 25 -24 25 -75 0 -33 -4 -59 -9 -59 -7 0 -71 128
-71 143 0 12 30 7 55 -9z m3018 -58 c-20 -41 -40 -73 -45 -70 -4 3 -8 26 -8
51 0 54 28 93 67 93 23 0 23 -1 -14 -74z m140 -1 l-37 -75 -58 0 -57 0 25 57
c43 98 38 93 104 93 l60 0 -37 -75z m167 68 c0 -3 -14 -37 -31 -75 l-32 -68
-58 0 c-67 0 -66 -3 -14 99 l25 51 55 0 c30 0 55 -3 55 -7z m140 2 c0 -3 -14
-36 -31 -75 l-32 -70 -58 0 c-33 0 -59 2 -59 5 0 3 16 37 35 75 l35 70 55 0
c30 0 55 -2 55 -5z m275 -62 c17 -37 32 -71 34 -76 1 -4 -23 -7 -55 -5 l-59 3
-25 53 c-14 29 -29 53 -35 53 -5 1 -21 -23 -35 -53 l-25 -53 -59 -3 c-32 -2
-56 1 -55 6 2 5 18 39 34 75 l30 66 110 1 111 0 29 -67z m140 -3 c19 -38 35
-72 35 -75 0 -3 -26 -5 -57 -3 l-58 3 -32 65 c-18 36 -32 68 -32 73 -1 4 24 7
54 7 l55 0 35 -70z m140 0 c19 -38 35 -72 35 -75 0 -3 -26 -5 -59 -5 l-58 0
-32 70 c-17 39 -31 72 -31 75 0 3 25 5 55 5 l55 0 35 -70z m124 33 c10 -21 26
-55 34 -75 l16 -38 -57 0 -58 0 -32 65 c-18 36 -32 70 -32 75 0 6 25 10 55 10
53 0 55 -1 74 -37z m66 21 c21 -14 25 -24 25 -70 0 -29 -4 -55 -8 -58 -5 -3
-25 29 -45 70 -34 69 -35 74 -17 74 12 0 32 -7 45 -16z m-4799 -89 c19 -46 19
-45 -21 -45 -19 0 -35 2 -35 5 0 8 33 75 37 75 2 0 11 -16 19 -35z m4224 -37
c0 -5 -16 -8 -35 -8 -19 0 -35 2 -35 5 0 2 8 20 17 40 l17 36 18 -33 c9 -18
17 -36 18 -40z"/>
<path d="M2415 6658 c-49 -26 -58 -69 -24 -112 15 -19 30 -26 55 -26 69 0 99
76 49 125 -26 27 -49 31 -80 13z m63 -24 c24 -17 30 -62 10 -82 -17 -17 -64
-15 -82 4 -22 21 -20 50 4 74 24 24 38 25 68 4z"/>
<path d="M2387 6390 c-19 -16 -39 -30 -44 -30 -5 0 -19 -10 -31 -23 -21 -22
-22 -32 -22 -213 l0 -190 74 -52 c41 -29 78 -52 83 -52 4 1 42 24 83 53 l75
52 3 163 c3 195 -5 238 -51 257 -18 7 -43 25 -56 39 -33 35 -72 34 -114 -4z
m106 -13 c12 -12 34 -28 50 -35 15 -6 32 -23 37 -38 6 -14 10 -99 10 -190 l0
-164 -140 0 -140 0 0 176 c0 175 6 214 35 214 8 0 29 13 47 30 40 35 71 38
101 7z m13 -487 c-66 -43 -68 -43 -141 16 l-30 24 115 0 115 0 -59 -40z"/>
<path d="M6623 6660 c-46 -19 -57 -83 -20 -118 48 -45 127 -14 127 49 0 52
-57 90 -107 69z m65 -26 c43 -30 21 -94 -33 -94 -36 0 -55 20 -55 59 0 19 34
51 55 51 6 0 21 -7 33 -16z"/>
<path d="M6597 6390 c-19 -16 -40 -30 -46 -30 -6 0 -20 -9 -31 -20 -19 -19
-20 -33 -20 -215 l0 -194 75 -51 c41 -27 77 -50 80 -50 3 0 39 23 80 50 l75
51 0 194 c0 182 -1 196 -20 215 -11 11 -25 20 -31 20 -6 0 -27 14 -46 30 -18
17 -45 30 -58 30 -13 0 -40 -13 -58 -30z m99 -11 c10 -12 35 -29 54 -38 l35
-16 3 -188 2 -187 -135 0 -135 0 2 187 3 188 35 16 c19 9 44 26 54 38 11 12
29 21 41 21 12 0 30 -9 41 -21z m64 -454 c0 -2 -23 -20 -52 -39 -50 -34 -52
-35 -80 -18 -16 9 -41 27 -56 39 l-27 22 108 1 c59 0 107 -2 107 -5z"/>
<path d="M4512 5713 c-30 -12 -42 -61 -42 -176 l0 -114 36 -46 c20 -26 40 -47
44 -47 4 0 24 20 44 44 l36 44 0 127 c0 120 -1 127 -25 150 -23 24 -61 31 -93
18z m82 -35 c12 -17 16 -50 16 -138 0 -114 0 -116 -30 -150 l-30 -35 -30 35
c-29 34 -29 37 -30 150 0 132 11 160 60 160 18 0 34 -8 44 -22z"/>
<path d="M4498 5254 c-36 -19 -48 -43 -48 -94 0 -118 163 -138 200 -26 29 89
-69 166 -152 120z m108 -28 c58 -49 20 -146 -56 -146 -74 0 -109 92 -55 145
31 32 75 32 111 1z"/>
<path d="M2401 5560 c-94 -22 -156 -127 -131 -221 23 -84 116 -148 201 -136
85 11 159 94 159 178 -1 77 -63 158 -138 179 -41 11 -44 11 -91 0z m135 -41
c38 -23 74 -91 74 -140 -1 -77 -82 -158 -159 -159 -113 0 -198 117 -156 216
21 51 42 73 90 96 47 22 102 17 151 -13z"/>
<path d="M6611 5560 c-69 -16 -125 -81 -137 -156 -5 -36 -2 -54 20 -97 36 -73
81 -102 161 -102 93 0 152 47 177 138 34 127 -89 248 -221 217z m91 -20 c45
-13 105 -77 113 -124 14 -71 -21 -143 -84 -176 -101 -51 -219 10 -238 124 -14
86 66 180 157 185 8 1 31 -4 52 -9z"/>
<path d="M3130 4810 c0 -6 103 -10 289 -10 183 0 292 4 296 10 4 7 -95 10
-289 10 -191 0 -296 -4 -296 -10z"/>
<path d="M3897 4622 c-13 -15 -17 -38 -17 -108 1 -83 3 -91 29 -122 l28 -33
27 31 c24 29 26 39 26 125 0 72 -4 97 -16 109 -21 21 -57 20 -77 -2z m71 -101
c2 -78 0 -97 -15 -113 -17 -19 -17 -19 -35 4 -13 18 -18 42 -18 104 0 85 10
107 45 102 18 -3 20 -12 23 -97z"/>
<path d="M4180 4810 c0 -6 130 -10 370 -10 240 0 370 4 370 10 0 6 -130 10
-370 10 -240 0 -370 -4 -370 -10z"/>
<path d="M4197 4622 c-13 -14 -17 -39 -17 -108 1 -83 3 -91 29 -123 l28 -34
26 35 c25 32 27 43 27 126 0 69 -4 94 -16 106 -21 21 -57 20 -77 -2z m71 -101
c2 -78 0 -97 -15 -113 -17 -19 -18 -19 -35 2 -14 17 -18 41 -18 104 0 87 10
109 45 104 18 -3 20 -12 23 -97z"/>
<path d="M4827 4622 c-13 -14 -17 -39 -17 -108 1 -83 3 -91 29 -123 l28 -34
26 35 c25 32 27 43 27 126 0 69 -4 94 -16 106 -21 21 -57 20 -77 -2z m71 -101
c2 -78 0 -97 -15 -113 -17 -19 -17 -19 -35 4 -13 18 -18 42 -18 104 0 85 10
107 45 102 18 -3 20 -12 23 -97z"/>
<path d="M5127 4622 c-13 -14 -17 -39 -17 -108 1 -83 3 -91 29 -123 l28 -34
26 35 c25 32 27 43 27 125 0 74 -3 93 -18 106 -24 22 -55 21 -75 -1z m71 -96
c2 -69 -1 -94 -14 -114 l-17 -26 -18 23 c-15 19 -19 40 -19 110 0 48 3 91 7
95 4 4 19 6 33 4 24 -3 25 -5 28 -92z"/>
<path d="M5390 4810 c0 -6 103 -10 290 -10 187 0 290 4 290 10 0 6 -103 10
-290 10 -187 0 -290 -4 -290 -10z"/>
<path d="M2404 4195 c-15 -23 -15 -27 0 -50 30 -46 96 -26 96 29 0 46 -69 61
-96 21z m71 -25 c0 -20 -6 -26 -26 -28 -30 -4 -46 22 -28 45 20 23 54 12 54
-17z"/>
<path d="M6615 4200 c-37 -41 7 -93 64 -75 49 15 28 95 -24 95 -12 0 -30 -9
-40 -20z m70 -20 c9 -27 -1 -40 -30 -40 -29 0 -39 13 -30 40 4 13 15 20 30 20
15 0 26 -7 30 -20z"/>
<path d="M3175 3950 c4 -6 98 -10 251 -10 156 0 244 4 244 10 0 6 -90 10 -251
10 -164 0 -248 -3 -244 -10z"/>
<path d="M3897 3782 c-13 -14 -17 -39 -17 -108 0 -87 1 -91 30 -119 l31 -29
24 29 c22 27 24 40 25 126 0 61 -4 99 -12 107 -18 18 -63 14 -81 -6z m71 -97
c2 -67 -1 -95 -12 -110 -14 -19 -15 -19 -35 -1 -18 17 -21 31 -21 106 0 48 3
90 7 94 4 4 19 6 33 4 24 -3 25 -5 28 -93z"/>
<path d="M5126 3784 c-12 -12 -16 -37 -16 -107 1 -83 3 -95 25 -119 13 -16 27
-28 30 -28 3 0 17 12 30 28 22 24 24 36 25 119 0 100 -10 123 -55 123 -13 0
-31 -7 -39 -16z m72 -94 c4 -111 -19 -158 -54 -112 -14 18 -20 183 -7 196 4 4
19 6 33 4 24 -3 25 -5 28 -88z"/>
<path d="M5430 3950 c0 -6 90 -10 250 -10 160 0 250 4 250 10 0 6 -90 10 -250
10 -160 0 -250 -4 -250 -10z"/>
<path d="M7650 7055 c-5 -14 -13 -37 -16 -51 -3 -13 -33 -54 -66 -91 -94 -103
-93 -98 -52 -314 20 -101 37 -195 38 -209 3 -42 14 -50 74 -50 l57 0 -33 -20
c-29 -18 -56 -58 -46 -69 2 -2 18 13 36 32 73 77 184 58 259 -46 l29 -40 0
-558 0 -558 -22 -3 c-17 -2 -23 -10 -23 -28 0 -18 6 -26 23 -28 12 -2 22 -10
22 -17 0 -7 -10 -15 -22 -17 -17 -2 -23 -10 -23 -28 0 -18 6 -26 23 -28 30 -5
28 -28 -4 -36 -33 -9 -31 -49 4 -54 l22 -3 0 -440 0 -439 -22 0 c-13 0 -28 -4
-35 -8 -14 -9 -139 -952 -130 -976 6 -14 35 -16 215 -16 156 0 212 3 220 13
11 13 -106 950 -121 975 -5 6 -21 12 -38 12 l-29 0 2 437 c3 429 3 438 23 442
11 2 23 8 27 14 10 17 -10 47 -32 47 -11 0 -20 7 -20 15 0 8 8 15 19 15 28 0
47 26 31 45 -7 8 -21 15 -31 15 -11 0 -19 7 -19 15 0 8 8 15 19 15 10 0 24 6
30 14 17 20 2 46 -25 46 l-24 0 2 558 3 557 30 42 c40 56 99 93 148 93 50 0
106 -27 120 -57 11 -25 27 -31 27 -9 0 8 -16 28 -35 44 l-35 31 58 3 c56 3 57
3 56 33 0 17 3 32 7 35 9 6 69 324 69 364 0 39 -25 82 -83 143 -33 35 -56 72
-68 106 -14 42 -22 52 -40 52 -18 0 -25 -7 -29 -30 -10 -44 -34 -86 -70 -120
-45 -41 -90 -114 -90 -143 0 -27 57 -343 66 -367 5 -13 -5 -15 -65 -15 l-70 0
-3 97 c-3 86 -5 98 -22 101 -29 6 -36 -16 -36 -110 l0 -88 -71 0 c-56 0 -69 3
-62 13 6 6 25 93 43 193 l32 181 -21 42 c-12 23 -39 59 -60 79 -46 45 -81 100
-81 128 0 45 -45 59 -60 19z m89 -179 c33 -37 61 -72 61 -77 0 -5 -57 -9 -126
-9 l-126 0 17 28 c10 15 38 47 61 70 24 24 44 49 44 55 0 6 2 8 4 6 1 -2 31
-35 65 -73z m564 7 c93 -100 97 -93 -47 -93 -75 0 -126 4 -126 10 0 8 110 138
118 140 2 0 27 -25 55 -57z m-699 -121 c2 -4 14 -70 25 -147 12 -77 24 -153
27 -169 l6 -28 -29 17 c-29 17 -31 24 -57 164 -14 81 -26 152 -26 159 0 13 46
17 54 4z m116 -18 c0 -27 -39 -286 -44 -291 -3 -3 -46 283 -46 305 0 8 16 12
45 12 42 0 45 -2 45 -26z m80 8 c0 -10 -11 -81 -25 -158 -14 -76 -25 -140 -25
-141 0 -1 -13 -9 -28 -17 l-28 -15 23 162 c13 89 26 168 28 175 7 20 55 15 55
-6z m383 -4 c11 -47 48 -309 45 -318 -2 -5 -14 -1 -27 9 -21 16 -28 39 -51
167 -15 82 -25 152 -23 157 2 4 15 7 28 7 15 0 25 -7 28 -22z m111 -25 c-26
-183 -42 -266 -47 -253 -3 8 -13 67 -21 130 -9 63 -19 127 -22 143 -6 27 -5
27 46 27 l51 0 -7 -47z m82 20 c-3 -16 -15 -84 -27 -153 -18 -106 -25 -129
-46 -148 -14 -13 -27 -21 -30 -18 -2 2 7 78 21 169 14 91 26 168 26 171 0 3
14 6 31 6 28 0 30 -2 25 -27z m-446 -455 l-1 -53 -20 28 c-12 15 -38 39 -57
52 l-37 25 58 0 57 0 0 -52z m155 33 c-17 -10 -43 -32 -57 -50 -15 -17 -29
-31 -32 -31 -3 0 -6 23 -6 50 l0 50 63 0 62 0 -30 -19z m-72 -2458 c4 -21 9
-71 13 -110 l7 -73 -73 0 -72 0 6 43 c3 23 8 67 12 97 8 80 8 80 57 80 44 0
45 -1 50 -37z m22 -202 c5 -9 65 -450 65 -483 0 -16 -13 -18 -141 -18 l-141 0
6 28 c3 15 17 124 31 242 15 118 28 221 31 228 4 14 140 17 149 3z m75 -543
c0 -13 3 -40 6 -61 l7 -38 -159 3 -159 3 3 40 c6 79 -3 75 158 75 143 0 144 0
144 -22z"/>
<path d="M7926 3579 c-5 -14 -26 -285 -26 -335 0 -17 4 -24 9 -19 10 11 36
354 27 362 -3 3 -8 0 -10 -8z"/>
<path d="M7994 3455 c8 -169 16 -239 26 -228 10 10 -13 350 -24 360 -5 5 -6
-55 -2 -132z"/>
<path d="M4237 5832 c-34 -37 -11 -92 38 -92 50 0 73 60 37 93 -24 22 -55 21
-75 -1z m68 -37 c0 -27 -3 -30 -30 -30 -24 0 -31 5 -33 24 -4 27 13 42 43 39
15 -2 20 -11 20 -33z"/>
<path d="M4787 5832 c-34 -38 -8 -92 44 -92 32 0 49 17 49 51 0 53 -59 79 -93
41z m68 -37 c0 -27 -3 -30 -30 -30 -21 0 -31 5 -33 18 -5 25 17 49 42 45 16
-2 21 -10 21 -33z"/>
<path d="M3782 5704 c-24 -17 -30 -62 -10 -82 7 -7 27 -12 45 -12 34 0 53 21
53 59 0 19 -34 51 -55 51 -6 0 -21 -7 -33 -16z m56 -16 c30 -30 -4 -77 -41
-57 -29 17 -15 69 18 69 6 0 16 -5 23 -12z"/>
<path d="M5250 5700 c-22 -22 -25 -42 -10 -71 12 -22 68 -27 88 -7 18 18 14
63 -6 81 -25 22 -48 21 -72 -3z m54 -6 c20 -8 21 -48 2 -63 -33 -28 -74 27
-44 57 14 14 20 14 42 6z"/>
<path d="M8695 5334 c-27 -66 -134 -404 -175 -554 -50 -181 -94 -389 -116
-545 -23 -165 -23 -433 0 -539 45 -204 131 -325 266 -373 l50 -18 0 -162 c0
-102 4 -163 10 -163 6 0 10 62 10 165 l0 164 35 10 c56 15 120 57 160 103 219
256 179 866 -113 1742 -59 174 -70 201 -89 204 -17 3 -26 -5 -38 -34z m98
-281 c151 -472 218 -811 218 -1108 0 -263 -46 -416 -155 -512 -24 -22 -61 -44
-80 -50 l-36 -11 0 449 c0 290 -4 449 -10 449 -6 0 -11 -161 -12 -448 l-3
-448 -31 8 c-90 23 -187 166 -220 323 -36 172 -18 474 46 779 49 230 200 746
218 746 5 0 34 -80 65 -177z"/>
</g>
</svg>
