<?xml version="1.0" standalone="no"?>
<!DOCTYPE svg PUBLIC "-//W3C//DTD SVG 20010904//EN"
 "http://www.w3.org/TR/2001/REC-SVG-20010904/DTD/svg10.dtd">
<svg version="1.0" xmlns="http://www.w3.org/2000/svg"
 width="512.000000pt" height="512.000000pt" viewBox="0 0 512.000000 512.000000"
 preserveAspectRatio="xMidYMid meet">

<g transform="translate(0.000000,512.000000) scale(0.100000,-0.100000)"
fill="#000000" stroke="none">
<path d="M2932 5104 c-22 -15 -22 -16 -22 -344 0 -180 3 -336 6 -345 15 -37
82 -38 106 -1 4 6 8 158 8 339 0 314 -1 328 -20 347 -24 24 -48 25 -78 4z"/>
<path d="M2534 4906 c-18 -13 -19 -30 -22 -243 -3 -212 -2 -231 16 -253 24
-30 70 -30 94 0 16 20 18 45 18 244 0 184 -3 225 -16 244 -18 25 -60 29 -90 8z"/>
<path d="M3326 4898 c-13 -19 -16 -60 -16 -244 0 -199 2 -224 18 -244 22 -27
67 -30 90 -6 15 15 17 46 17 252 0 222 -1 236 -19 250 -30 21 -72 18 -90 -8z"/>
<path d="M2235 4705 c-25 -24 -25 -27 -25 -198 0 -161 2 -176 21 -201 12 -15
30 -26 44 -26 14 0 32 11 44 26 19 25 21 40 21 201 0 171 0 174 -25 198 -13
14 -31 25 -40 25 -9 0 -27 -11 -40 -25z"/>
<path d="M3625 4706 c-25 -25 -25 -26 -25 -206 0 -167 1 -181 20 -200 26 -26
62 -25 86 1 17 19 19 38 19 205 0 196 -2 203 -52 219 -17 4 -29 -1 -48 -19z"/>
<path d="M2880 4233 c-328 -32 -618 -169 -837 -397 -108 -111 -169 -195 -234
-323 -96 -189 -139 -373 -139 -599 0 -156 18 -271 65 -411 152 -455 522 -779
1005 -880 118 -24 373 -24 490 0 277 59 490 174 685 371 195 196 304 397 362
669 25 116 25 399 -1 517 -93 431 -385 787 -782 954 -186 78 -430 117 -614 99z
m30 -222 l0 -98 -59 -7 c-148 -17 -333 -93 -461 -189 l-75 -57 -69 69 -69 69
29 26 c45 40 182 130 252 165 116 58 323 117 425 120 l27 1 0 -99z m364 65
c164 -42 322 -120 450 -221 l59 -47 -70 -70 -70 -70 -79 58 c-80 57 -177 108
-269 139 -62 21 -186 45 -231 45 l-34 0 0 101 0 102 76 -7 c41 -4 117 -18 168
-30z m-49 -321 c311 -91 545 -343 612 -659 18 -87 20 -260 3 -341 -72 -346
-342 -619 -682 -689 -452 -93 -897 186 -1019 639 -17 63 -22 108 -22 215 0
107 5 152 22 215 89 330 351 575 686 641 109 21 289 12 400 -21z m-1044 -249
c-91 -120 -159 -286 -184 -452 l-12 -79 -89 -3 c-49 -2 -93 1 -98 6 -12 12 6
146 33 249 39 150 130 329 223 439 l39 46 69 -69 70 -70 -51 -67z m1742 148
c130 -164 223 -391 245 -598 5 -42 6 -79 3 -81 -2 -3 -46 -5 -97 -5 l-92 0
-12 82 c-24 165 -94 336 -188 461 l-49 65 66 66 c36 36 69 66 73 66 3 0 26
-25 51 -56z m-1928 -856 c24 -189 84 -328 224 -520 13 -18 9 -25 -55 -89 l-68
-69 -23 28 c-151 179 -244 397 -278 655 l-6 47 99 0 100 0 7 -52z m2173 -20
c-24 -206 -108 -413 -234 -578 -71 -93 -66 -93 -140 -19 -35 35 -64 68 -64 75
0 6 9 19 20 29 36 32 122 177 155 259 30 73 53 163 70 269 l6 37 98 0 97 0 -8
-72z m-1725 -695 c105 -71 250 -126 385 -147 l77 -12 3 -98 3 -99 -65 7 c-98
10 -246 50 -346 95 -84 36 -216 118 -285 176 l-30 25 70 70 69 69 35 -26 c19
-15 57 -42 84 -60z m1267 12 c62 -63 63 -65 46 -84 -52 -58 -239 -167 -371
-216 -78 -30 -247 -65 -309 -65 l-46 0 0 95 c0 108 -15 94 123 115 142 21 314
95 422 180 28 21 55 39 60 39 6 1 39 -28 75 -64z"/>
<path d="M2723 3315 c-16 -11 -23 -26 -23 -50 0 -52 27 -65 133 -65 94 0 138
-14 157 -50 10 -20 7 -20 -123 -20 -117 0 -136 -2 -150 -18 -21 -23 -22 -66
-1 -86 12 -13 41 -16 150 -16 76 0 134 -4 134 -9 0 -5 -14 -20 -32 -33 -27
-19 -48 -23 -133 -26 -111 -5 -135 -16 -135 -63 0 -28 33 -64 277 -292 86 -81
115 -93 146 -59 26 28 21 70 -11 100 -15 15 -65 62 -111 105 -45 43 -81 80
-79 81 2 1 23 8 46 15 55 16 129 82 154 139 18 41 20 42 67 42 55 0 81 20 81
63 0 35 -34 57 -90 57 -43 0 -46 2 -56 35 l-11 35 58 0 c46 0 64 5 79 20 23
23 26 58 6 86 -13 18 -30 19 -263 22 -214 2 -251 1 -270 -13z"/>
<path d="M4052 1760 c-35 -12 -141 -85 -322 -219 -148 -111 -273 -201 -276
-201 -3 0 -28 20 -56 45 -66 59 -143 95 -231 108 -67 10 -92 7 -372 -42 -355
-61 -404 -63 -564 -21 -200 52 -354 50 -536 -7 -97 -31 -160 -61 -243 -119
-35 -24 -64 -44 -66 -44 -2 0 -7 21 -10 48 -10 71 -25 111 -46 122 -14 7 -100
-4 -312 -41 -314 -55 -332 -61 -330 -116 2 -55 213 -1237 223 -1250 6 -7 19
-15 29 -18 19 -6 527 77 588 96 36 12 47 38 40 97 -5 36 -3 39 72 99 94 76
149 102 215 103 28 0 232 -14 453 -30 222 -17 450 -30 507 -30 163 0 337 52
480 143 53 34 1122 1074 1142 1112 18 32 -11 81 -70 122 -93 63 -214 80 -315
43z m213 -128 l30 -15 -217 -211 c-119 -116 -356 -347 -525 -512 -285 -279
-315 -305 -390 -343 -99 -49 -202 -79 -303 -87 -46 -3 -253 8 -545 30 -346 25
-483 32 -519 25 -66 -12 -140 -49 -201 -98 -44 -35 -51 -38 -57 -23 -4 9 -35
172 -68 362 l-60 345 48 45 c27 25 74 60 105 79 193 115 398 140 638 79 182
-46 256 -44 589 16 366 66 436 60 540 -44 39 -39 76 -98 67 -106 -3 -3 -171
-34 -373 -69 -203 -36 -379 -67 -392 -70 -28 -7 -47 -45 -39 -78 13 -48 33
-48 333 4 153 27 346 60 429 75 176 30 190 38 181 104 -3 25 -8 54 -11 66 -6
18 32 50 265 224 287 215 323 235 405 223 22 -3 53 -12 70 -21z m-3006 -384
c48 -240 179 -1033 172 -1037 -16 -11 -411 -74 -417 -68 -8 7 -197 1078 -192
1083 4 3 385 72 410 73 12 1 19 -12 27 -51z"/>
</g>
</svg>
