<?xml version="1.0" standalone="no"?>
<!DOCTYPE svg PUBLIC "-//W3C//DTD SVG 20010904//EN"
 "http://www.w3.org/TR/2001/REC-SVG-20010904/DTD/svg10.dtd">
<svg version="1.0" xmlns="http://www.w3.org/2000/svg"
 width="512.000000pt" height="512.000000pt" viewBox="0 0 512.000000 512.000000"
 preserveAspectRatio="xMidYMid meet">

<g transform="translate(0.000000,512.000000) scale(0.100000,-0.100000)"
fill="#000000" stroke="none">
<path d="M2513 4338 c-11 -5 -28 -24 -38 -42 -14 -28 -16 -72 -13 -398 l3
-368 27 -27 c39 -38 97 -38 136 0 l27 27 3 368 c3 326 1 370 -13 398 -26 49
-81 67 -132 42z"/>
<path d="M1003 3615 c-38 -16 -55 -45 -55 -93 0 -48 47 -92 98 -92 82 0 126
105 68 164 -15 14 -32 26 -40 26 -7 0 -18 2 -26 5 -7 2 -27 -2 -45 -10z"/>
<path d="M4053 3623 c-12 -2 -33 -16 -47 -30 -58 -58 -14 -163 68 -163 105 0
137 146 41 186 -19 8 -36 13 -37 13 -2 -1 -13 -4 -25 -6z"/>
<path d="M1231 3376 c-56 -31 -65 -94 -22 -152 51 -70 334 -341 361 -345 41
-7 67 1 93 27 26 26 35 54 29 94 -4 27 -318 352 -364 376 -33 17 -66 17 -97 0z"/>
<path d="M3795 3379 c-31 -17 -355 -341 -371 -371 -21 -40 -17 -73 11 -106 30
-36 70 -47 111 -32 31 12 317 289 365 354 16 21 29 49 29 62 0 75 -81 127
-145 93z"/>
<path d="M2502 3234 c-12 -11 -103 -182 -202 -381 -98 -200 -183 -363 -187
-363 -32 0 -773 -113 -794 -121 -29 -12 -59 -57 -59 -91 0 -12 8 -34 18 -48
14 -21 195 -201 536 -530 l39 -38 -68 -400 c-61 -358 -67 -403 -55 -431 14
-34 55 -61 92 -61 12 0 181 83 374 185 194 102 358 185 364 185 7 0 171 -83
365 -185 194 -102 362 -185 374 -185 51 0 100 46 101 93 0 16 -29 200 -66 409
-36 209 -64 383 -62 388 2 5 127 129 278 276 151 148 283 280 292 294 33 47
13 118 -39 138 -22 9 -760 122 -796 122 -4 0 -88 163 -188 363 -99 199 -186
368 -194 376 -22 23 -97 26 -123 5z m198 -591 c74 -152 145 -289 157 -304 13
-15 34 -30 48 -33 14 -4 150 -24 303 -46 152 -22 290 -43 306 -46 28 -6 21
-14 -213 -243 -213 -208 -242 -240 -241 -266 1 -16 25 -167 54 -335 29 -168
52 -307 50 -309 -2 -2 -133 65 -292 148 -159 83 -300 151 -312 151 -13 0 -149
-66 -304 -147 -154 -82 -286 -149 -292 -151 -7 -2 8 111 42 310 30 172 54 324
54 338 1 20 -51 75 -241 261 -216 211 -239 237 -218 242 13 3 159 25 323 48
257 37 303 46 326 65 16 14 79 131 166 308 76 157 141 286 144 285 3 0 66
-124 140 -276z"/>
<path d="M651 2096 c-16 -9 -54 -72 -115 -192 l-91 -179 -188 -27 c-198 -28
-230 -39 -248 -86 -21 -55 -5 -81 142 -228 l141 -141 -33 -191 c-28 -166 -31
-194 -19 -221 14 -34 55 -61 91 -61 12 0 100 41 196 91 l173 90 174 -90 c95
-50 183 -91 195 -91 36 0 77 27 91 60 12 28 9 56 -19 223 l-33 190 141 141
c147 147 163 173 142 228 -18 47 -50 58 -248 86 l-188 27 -91 179 c-93 182
-111 205 -164 205 -14 0 -36 -6 -49 -13z m99 -416 c64 -131 72 -137 213 -157
l117 -16 -84 -87 c-47 -47 -87 -97 -91 -111 -3 -14 2 -75 13 -137 10 -62 17
-112 14 -112 -3 0 -49 23 -103 50 -60 31 -110 50 -131 50 -20 0 -69 -20 -127
-50 -51 -28 -97 -50 -101 -50 -4 0 1 50 12 111 11 60 17 122 13 137 -3 14 -44
65 -91 112 l-84 87 117 16 c141 20 149 26 213 157 24 49 47 90 50 90 3 0 26
-41 50 -90z"/>
<path d="M4371 2096 c-16 -9 -54 -72 -115 -192 l-91 -179 -188 -27 c-198 -27
-230 -39 -248 -86 -21 -56 -6 -81 142 -228 l141 -139 -33 -192 c-28 -167 -30
-195 -19 -223 14 -33 55 -60 91 -60 12 0 100 41 195 91 l174 90 173 -90 c96
-50 184 -91 196 -91 36 0 77 27 91 61 12 27 9 55 -19 221 l-33 191 141 141
c147 147 163 173 142 228 -18 47 -50 58 -248 86 l-188 27 -91 179 c-93 182
-111 205 -164 205 -14 0 -36 -6 -49 -13z m99 -416 c64 -131 72 -137 213 -157
l117 -16 -84 -87 c-47 -47 -88 -98 -91 -112 -4 -15 2 -77 13 -137 11 -61 16
-111 12 -111 -4 0 -50 22 -101 50 -58 30 -107 50 -127 50 -21 0 -71 -19 -131
-50 -54 -27 -100 -50 -103 -50 -3 0 4 50 14 112 11 62 16 123 13 137 -4 14
-44 64 -91 111 l-84 87 117 16 c141 20 149 26 213 157 24 49 47 90 50 90 3 0
26 -41 50 -90z"/>
</g>
</svg>
