<?xml version="1.0" standalone="no"?>
<!DOCTYPE svg PUBLIC "-//W3C//DTD SVG 20010904//EN"
 "http://www.w3.org/TR/2001/REC-SVG-20010904/DTD/svg10.dtd">
<svg version="1.0" xmlns="http://www.w3.org/2000/svg"
 width="512.000000pt" height="512.000000pt" viewBox="0 0 512.000000 512.000000"
 preserveAspectRatio="xMidYMid meet">

<g transform="translate(0.000000,512.000000) scale(0.100000,-0.100000)"
fill="#000000" stroke="none">
<path d="M983 5042 c-35 -27 -43 -65 -43 -193 l0 -119 -400 0 c-288 0 -406 -3
-425 -12 -59 -27 -55 121 -55 -2207 0 -1638 3 -2146 12 -2166 26 -58 -76 -55
1707 -55 l1641 0 62 -46 c82 -61 242 -137 348 -166 72 -19 110 -22 250 -22
141 0 178 3 250 23 169 45 314 127 443 250 96 91 156 175 212 294 80 169 111
342 95 521 -14 142 -35 182 -103 193 -28 4 -40 0 -68 -25 -33 -29 -34 -33 -29
-89 2 -32 4 -119 4 -193 0 -125 -3 -142 -33 -230 -45 -133 -99 -220 -200 -321
-171 -170 -373 -249 -611 -236 -128 7 -198 25 -315 82 -162 78 -291 207 -370
370 -63 130 -78 196 -79 350 -1 138 10 198 58 317 91 225 290 401 533 470 113
32 315 32 427 0 98 -28 236 -99 296 -151 l45 -39 -55 -58 c-30 -33 -154 -164
-274 -292 -120 -127 -221 -232 -225 -232 -3 0 -60 56 -126 125 -117 122 -121
125 -163 125 -72 0 -121 -69 -91 -130 16 -33 302 -339 333 -357 30 -17 67 -16
97 5 35 22 943 992 952 1015 28 73 -37 149 -112 132 -21 -4 -57 -35 -115 -96
l-84 -90 -61 48 -61 48 0 1383 c0 1503 3 1424 -55 1450 -19 9 -138 12 -430 12
l-405 0 0 136 0 136 -29 29 c-41 40 -91 40 -132 0 l-29 -29 0 -136 0 -136
-560 0 -560 0 0 136 0 136 -29 29 c-39 38 -87 39 -130 3 l-31 -26 0 -139 0
-139 -559 0 -559 0 -4 141 c-3 140 -3 141 -31 165 -34 29 -91 32 -124 6z m-43
-627 c0 -164 21 -205 104 -205 22 0 45 9 63 24 28 24 28 25 31 160 l4 136 559
0 559 0 0 -132 c0 -130 0 -132 27 -160 38 -40 93 -39 134 1 l29 29 0 131 0
131 560 0 560 0 0 -131 0 -131 29 -29 c39 -38 87 -39 130 -3 l31 26 0 134 0
134 345 0 345 0 0 -340 0 -340 -2095 0 -2095 0 0 340 0 340 340 0 340 0 0
-115z m3510 -1596 c0 -788 -1 -831 -17 -823 -10 4 -58 18 -107 31 -273 71
-566 19 -815 -145 -75 -49 -208 -182 -261 -261 -56 -84 -114 -209 -139 -301
-70 -254 -32 -548 99 -770 16 -28 30 -53 30 -55 0 -3 -670 -5 -1490 -5 l-1490
0 0 1580 0 1580 2095 0 2095 0 0 -831z"/>
<path d="M862 2995 c-39 -33 -48 -74 -27 -115 30 -57 55 -61 360 -58 260 3
275 4 302 24 36 27 50 73 33 114 -24 57 -40 60 -354 60 l-284 0 -30 -25z"/>
<path d="M2029 2991 c-58 -58 -29 -151 52 -166 19 -3 155 -5 302 -3 l269 3 29
33 c40 44 40 93 0 133 l-29 29 -297 0 -297 0 -29 -29z"/>
<path d="M3199 2991 c-40 -40 -40 -89 0 -133 l29 -33 269 -3 c147 -2 283 0
302 3 81 15 110 108 52 166 l-29 29 -297 0 -297 0 -29 -29z"/>
<path d="M862 2235 c-56 -47 -51 -118 10 -155 31 -19 47 -20 320 -18 286 3
286 3 312 27 31 30 42 73 26 112 -24 56 -41 59 -354 59 l-284 0 -30 -25z"/>
<path d="M2030 2231 c-51 -51 -38 -130 25 -157 44 -18 544 -20 594 -3 60 21
80 106 37 156 l-24 28 -301 3 -302 3 -29 -30z"/>
<path d="M3224 2250 c-72 -29 -71 -140 1 -175 46 -21 548 -22 600 -1 63 27 76
106 26 157 l-29 29 -289 -1 c-158 0 -298 -4 -309 -9z"/>
<path d="M858 1471 c-44 -39 -46 -98 -5 -138 l27 -28 300 0 300 0 25 26 c14
14 28 42 32 62 5 32 1 41 -30 72 l-35 35 -291 0 -291 0 -32 -29z"/>
<path d="M2054 1490 c-47 -19 -69 -92 -44 -141 25 -45 53 -49 338 -49 171 0
281 4 301 11 50 18 77 91 51 140 -25 45 -52 49 -347 48 -153 0 -288 -4 -299
-9z"/>
</g>
</svg>
