<?xml version="1.0" standalone="no"?>
<!DOCTYPE svg PUBLIC "-//W3C//DTD SVG 20010904//EN"
 "http://www.w3.org/TR/2001/REC-SVG-20010904/DTD/svg10.dtd">
<svg version="1.0" xmlns="http://www.w3.org/2000/svg"
 width="512.000000pt" height="512.000000pt" viewBox="0 0 512.000000 512.000000"
 preserveAspectRatio="xMidYMid meet">

<g transform="translate(0.000000,512.000000) scale(0.100000,-0.100000)"
fill="#000000" stroke="none">
<path d="M2103 4454 c-21 -21 -24 -32 -20 -62 3 -20 8 -45 12 -54 7 -17 -4
-18 -138 -18 -123 0 -148 -3 -166 -17 -15 -13 -31 -54 -54 -140 -18 -67 -35
-124 -38 -128 -3 -3 -99 6 -212 20 -113 14 -212 25 -220 25 -41 0 -58 -33
-102 -210 -25 -96 -45 -186 -45 -199 0 -17 31 -55 109 -135 l109 -111 -222
-370 -222 -370 -130 -12 c-150 -14 -242 -41 -322 -93 -115 -75 -186 -166 -246
-315 -43 -105 -44 -128 -11 -160 l24 -25 258 -1 c246 -1 255 -1 193 -15 -228
-48 -421 -238 -480 -470 -87 -338 124 -687 466 -774 147 -38 298 -20 444 51
212 105 349 331 350 577 l0 72 64 0 63 0 68 -111 c38 -60 76 -114 86 -120 11
-5 390 -9 958 -9 l939 0 12 -37 c42 -132 162 -281 282 -351 255 -150 569 -111
778 98 228 228 253 579 59 837 l-47 61 32 6 c17 2 83 10 145 17 97 10 118 16
138 35 13 13 23 33 23 45 0 21 -103 305 -150 414 -50 116 -207 308 -309 377
-22 16 -23 18 -11 68 42 175 -60 358 -227 410 -60 18 -92 20 -412 20 l-347 0
-119 -40 -119 -40 -329 0 c-198 0 -345 -4 -370 -11 -155 -39 -237 -223 -164
-370 l26 -54 -29 -45 c-47 -74 -63 -139 -58 -230 4 -76 9 -88 93 -260 l89
-182 -15 -41 c-9 -26 -26 -50 -48 -64 -33 -22 -40 -23 -285 -23 -206 0 -255 3
-273 15 -14 10 -65 126 -157 355 -75 187 -136 345 -136 350 0 6 61 170 136
365 l137 355 197 0 c235 0 266 7 334 80 104 112 82 284 -48 365 -49 30 -51 30
-232 36 l-182 5 -50 55 c-28 30 -66 64 -86 74 -20 11 -36 24 -35 30 0 5 13 42
28 80 l29 70 121 3 c105 2 121 0 121 -13 0 -27 46 -65 80 -65 37 0 80 39 80
72 0 44 -89 292 -111 311 -31 25 -75 22 -106 -9z m-534 -570 c223 -28 263 -41
302 -96 42 -58 38 -124 -16 -263 -25 -66 -50 -124 -55 -129 -4 -4 -76 18 -159
50 l-151 59 -101 101 -100 101 16 64 c9 35 21 81 26 102 5 20 15 37 21 37 6 0
103 -12 217 -26z m812 -233 c26 -32 24 -77 -6 -106 -24 -24 -28 -25 -185 -25
-88 0 -160 4 -160 9 0 5 7 28 15 51 8 23 15 55 15 70 0 14 2 29 4 31 2 2 70 2
151 -1 139 -5 148 -6 166 -29z m-775 -362 c71 -27 130 -52 132 -54 2 -2 -42
-122 -99 -267 -87 -224 -102 -272 -103 -323 -1 -55 11 -90 142 -417 200 -498
165 -471 599 -466 264 3 280 4 319 25 106 56 158 141 158 254 0 64 -4 75 -87
245 -96 198 -105 238 -68 320 22 48 82 101 131 114 19 5 363 25 764 44 l730
35 115 -59 c176 -89 288 -191 374 -340 17 -30 55 -116 83 -190 l52 -135 -27
-7 c-14 -4 -318 -39 -676 -78 l-650 -71 -360 -240 -360 -239 -486 0 -485 0
-372 595 c-205 327 -372 600 -372 606 0 9 409 699 415 699 1 0 60 -23 131 -51z
m2712 -190 c58 -29 94 -84 100 -155 3 -37 1 -54 -7 -54 -6 0 -43 16 -82 36
l-71 35 -757 -36 c-674 -32 -792 -41 -847 -62 -19 -7 -47 60 -39 97 3 15 17
38 31 51 l26 24 366 5 367 6 100 36 100 36 334 1 c321 1 336 0 379 -20z
m-3123 -985 c143 -229 262 -420 264 -425 2 -6 -12 -9 -32 -7 -31 3 -53 25
-256 263 -122 143 -232 268 -243 278 -18 15 -48 17 -294 17 -158 0 -274 4
-274 9 0 5 19 38 43 72 49 74 119 130 197 160 44 16 200 40 320 48 9 0 112
-155 275 -415z m-481 -346 c-42 -83 -88 -168 -104 -187 -76 -98 -66 -215 25
-306 101 -101 229 -101 331 0 39 39 54 63 67 110 10 33 46 116 81 184 l63 124
41 -51 c107 -137 74 -377 -75 -533 -188 -198 -499 -197 -688 2 -177 185 -177
473 0 658 79 83 212 148 308 150 l27 1 -76 -152z m327 80 l20 -27 -51 -101
-51 -101 -27 20 c-16 11 -40 23 -55 26 -15 4 -27 9 -27 11 0 2 27 59 61 125
l60 121 26 -23 c14 -13 34 -36 44 -51z m3475 -16 c246 -180 272 -528 55 -735
-195 -186 -491 -180 -674 12 -45 47 -107 143 -107 166 0 3 61 5 136 5 134 0
136 0 172 -29 99 -77 216 -68 307 24 92 92 101 208 23 308 -25 32 -29 45 -25
76 4 34 -2 88 -19 169 l-6 32 49 0 c39 0 59 -6 89 -28z m-291 -44 c21 -52 22
-143 2 -190 -20 -48 -73 -105 -121 -131 -40 -22 -48 -22 -541 -25 l-500 -2
242 161 242 162 283 32 c156 18 304 33 329 34 46 1 47 0 64 -41z m-3370 -293
c16 -15 25 -36 25 -55 0 -19 -9 -40 -25 -55 -15 -16 -36 -25 -55 -25 -19 0
-40 9 -55 25 -16 15 -25 36 -25 55 0 19 9 40 25 55 15 16 36 25 55 25 19 0 40
-9 55 -25z m3465 -75 c0 -16 -47 -60 -64 -60 -10 0 -2 13 22 35 42 39 42 39
42 25z"/>
<path d="M3465 2615 c-16 -15 -25 -36 -25 -55 0 -19 9 -40 25 -55 l24 -25 231
0 231 0 24 25 c16 15 25 36 25 55 0 19 -9 40 -25 55 l-24 25 -231 0 -231 0
-24 -25z"/>
<path d="M3465 2295 c-16 -15 -25 -36 -25 -55 0 -19 9 -40 25 -55 l24 -25 231
0 231 0 24 25 c16 15 25 36 25 55 0 19 -9 40 -25 55 l-24 25 -231 0 -231 0
-24 -25z"/>
</g>
</svg>
