<?xml version="1.0" standalone="no"?>
<!DOCTYPE svg PUBLIC "-//W3C//DTD SVG 20010904//EN"
 "http://www.w3.org/TR/2001/REC-SVG-20010904/DTD/svg10.dtd">
<svg version="1.0" xmlns="http://www.w3.org/2000/svg"
 width="512.000000pt" height="512.000000pt" viewBox="0 0 512.000000 512.000000"
 preserveAspectRatio="xMidYMid meet">

<g transform="translate(0.000000,512.000000) scale(0.100000,-0.100000)"
fill="#c4c4c4" stroke="none">
<path d="M1600 4621 l-955 -347 -3 -895 c-3 -999 0 -1060 63 -1303 42 -166 81
-270 155 -421 129 -262 328 -512 550 -691 115 -92 1138 -834 1150 -834 20 0
1132 815 1225 897 329 292 566 709 654 1152 39 194 42 293 39 1211 l-3 885
-955 347 c-525 191 -957 347 -960 347 -3 0 -435 -156 -960 -348z m1732 -272
c425 -155 785 -286 801 -291 l27 -10 0 -774 c0 -482 -4 -812 -11 -872 -32
-293 -130 -561 -297 -812 -56 -86 -110 -150 -211 -251 -125 -125 -173 -162
-608 -478 l-473 -343 -472 343 c-437 316 -483 353 -609 478 -233 234 -380 489
-460 798 -56 221 -59 269 -59 1127 l0 783 348 127 c191 69 550 200 797 290
248 91 451 165 452 165 2 1 350 -126 775 -280z"/>
<path d="M2803 2908 l-443 -443 -245 245 -245 245 -112 -113 -113 -112 358
-358 357 -357 557 557 558 558 -110 110 c-60 60 -112 110 -115 110 -3 0 -204
-199 -447 -442z"/>
</g>
</svg>
